<?xml version="1.0" standalone="no"?>
<!-- Generator: Adobe Fireworks 10, Export SVG Extension by Aaron Beall (http://fireworks.abeall.com) . Version: 0.6.1  -->
<!DOCTYPE svg PUBLIC "-//W3C//DTD SVG 1.1//EN" "http://www.w3.org/Graphics/SVG/1.1/DTD/svg11.dtd">
<svg id="Untitled-Str%E1nka%201" viewBox="0 0 103 81" style="background-color:#ffffff00" version="1.1"
	xmlns="http://www.w3.org/2000/svg" xmlns:xlink="http://www.w3.org/1999/xlink" xml:space="preserve"
	x="0px" y="0px" width="103px" height="81px"
>
	<defs>
		<!-- Library -->
		<symbol id="Symbol5" overflow="visible">
			<g id="Vrstva%2012">
				<g>
					<g>
						<path d="M -94.0469 63.29 L -94.0469 55.48 C -93.2813 57.2964 -92.0469 58.73 -90.3438 59.7788 C -88.6416 60.8291 -86.709 61.3545 -84.5488 61.3545 C -82.9741 61.3545 -81.7134 60.9932 -80.7681 60.2749 C -79.8228 59.5542 -79.3501 58.6011 -79.3501 57.4155 C -79.3501 56.3354 -79.7192 55.4663 -80.4536 54.8062 C -81.189 54.146 -82.7866 53.4546 -85.2461 52.7358 C -88.7871 51.6851 -91.3164 50.3491 -92.8311 48.7305 C -94.3467 47.1094 -95.103 44.9707 -95.103 42.3164 C -95.103 39.1348 -94.0654 36.5728 -91.9863 34.6313 C -89.9092 32.688 -87.1523 31.7153 -83.7168 31.7153 C -81.7964 31.7153 -80.0522 32.0122 -78.4849 32.604 C -76.9165 33.1978 -75.48 34.1099 -74.1743 35.3384 L -74.1743 43.6875 C -74.9692 42.084 -76.1362 40.8379 -77.6743 39.9531 C -79.2124 39.0664 -81.0015 38.625 -83.0415 38.625 C -84.7813 38.625 -86.1357 38.9316 -87.1035 39.5469 C -88.0713 40.1621 -88.5547 41.0254 -88.5547 42.1348 C -88.5547 43.0801 -88.1465 43.8828 -87.3281 44.543 C -86.5107 45.2031 -85.1113 45.8418 -83.1313 46.457 C -82.8911 46.5313 -82.5464 46.6367 -82.0962 46.7715 C -79.7114 47.4609 -77.9028 48.25 -76.6724 49.1348 C -75.4868 49.9902 -74.5767 51.0815 -73.938 52.4097 C -73.3013 53.7358 -72.9819 55.2104 -72.9819 56.8315 C -72.9819 59.8765 -74.0474 62.374 -76.1772 64.3252 C -78.3081 66.2764 -81.0532 67.251 -84.4141 67.251 C -86.4248 67.251 -88.2588 66.9092 -89.916 66.2256 C -91.5742 65.5439 -92.9512 64.5654 -94.0469 63.29 Z" fill="#005086"/>
						<path d="M -51.6372 66.5986 L -51.6372 61.7139 C -52.5073 63.665 -53.6362 65.1279 -55.0249 66.1025 C -56.4126 67.0771 -58.0659 67.5654 -59.9868 67.5654 C -62.4023 67.5654 -64.3486 66.8193 -65.8271 65.3271 C -67.3047 63.833 -68.0439 61.8799 -68.0439 59.4644 C -68.0439 57.4097 -67.335 55.7104 -65.917 54.3667 C -64.499 53.0249 -61.9814 51.7671 -58.3667 50.5972 C -57.8716 50.4468 -57.1812 50.2383 -56.2964 49.9668 C -53.4312 49.127 -51.9976 48.0762 -51.9976 46.8164 C -51.9976 45.8125 -52.4409 45.0156 -53.3257 44.4316 C -54.2104 43.8457 -55.4185 43.5527 -56.9487 43.5527 C -58.689 43.5527 -60.3843 44.0156 -62.0342 44.9375 C -63.6846 45.8594 -65.2305 47.2148 -66.6709 49 L -66.6709 41.9785 C -65.4404 40.5527 -63.8545 39.4316 -61.9111 38.6133 C -59.9683 37.7954 -57.9097 37.3872 -55.7339 37.3872 C -53.7827 37.3872 -52.0581 37.6958 -50.5571 38.3091 C -49.0576 38.9258 -47.8652 39.8105 -46.9795 40.9648 C -46.4541 41.6855 -46.0791 42.5098 -45.8535 43.4414 C -45.6289 44.3711 -45.5166 45.834 -45.5166 47.8301 L -45.5166 66.5986 L -51.6372 66.5986 ZM -51.8394 52.8706 C -52.771 53.3062 -54.0454 53.8452 -55.6655 54.4897 C -59.4321 56.0054 -61.3149 57.6792 -61.3149 59.5093 C -61.3149 60.4253 -60.9917 61.1748 -60.3472 61.7588 C -59.7026 62.3447 -58.8765 62.6377 -57.8716 62.6377 C -55.9956 62.6377 -54.5112 61.8916 -53.4155 60.3979 C -52.3198 58.9058 -51.7729 56.8687 -51.7729 54.2886 C -51.7729 53.9136 -51.7769 53.6284 -51.7837 53.4331 C -51.7915 53.2378 -51.8101 53.0503 -51.8394 52.8706 Z" fill="#005086"/>
						<path d="M -21.0439 59.1499 C -21.7041 61.1436 -22.6533 62.6006 -23.8916 63.5146 C -25.1289 64.4307 -26.7607 64.8877 -28.7856 64.8877 C -32.1919 64.8877 -34.8696 63.6279 -36.8198 61.1064 C -38.77 58.5874 -39.7451 55.0972 -39.7451 50.6421 C -39.7451 46.4707 -38.77 43.2188 -36.8198 40.8867 C -34.8696 38.5527 -32.1606 37.3872 -28.6958 37.3872 C -26.6709 37.3872 -24.9414 37.8931 -23.5088 38.9063 C -22.0752 39.918 -21.0361 41.3789 -20.3916 43.2832 L -20.3916 38.356 L -14.271 38.356 L -14.271 62.7725 C -14.271 66.5381 -15.3354 69.3623 -17.4658 71.2451 C -19.5967 73.1274 -22.7998 74.0688 -27.0752 74.0688 C -29.0259 74.0688 -30.8374 73.811 -32.5103 73.2935 C -34.1831 72.7759 -35.7544 71.9912 -37.2251 70.9424 L -37.2251 65.4502 C -35.9048 66.6045 -34.4985 67.4521 -33.0054 67.9932 C -31.5122 68.5342 -29.8433 68.8037 -27.998 68.8037 C -25.583 68.8037 -23.7979 68.2744 -22.6416 67.2178 C -21.4873 66.1592 -20.9092 64.5283 -20.9092 62.3213 C -20.9092 61.917 -20.9209 61.4482 -20.9424 60.915 C -20.9658 60.3843 -20.999 59.7944 -21.0439 59.1499 ZM -26.9404 43.7324 C -28.9058 43.7324 -30.4438 44.4316 -31.5532 45.8262 C -32.6646 47.2227 -33.2192 49.1504 -33.2192 51.6089 C -33.2192 54.0112 -32.6821 55.8784 -31.6099 57.2144 C -30.5376 58.5483 -29.0552 59.2163 -27.165 59.2163 C -25.1553 59.2163 -23.5947 58.5151 -22.4844 57.1128 C -21.374 55.7104 -20.8193 53.7397 -20.8193 51.2046 C -20.8193 48.9102 -21.3701 47.0898 -22.4736 45.748 C -23.5752 44.4043 -25.0654 43.7324 -26.9404 43.7324 Z" fill="#005086"/>
						<path d="M 14.3086 62.8623 C 13.1816 64.3779 11.7578 65.54 10.0313 66.3506 C 8.3066 67.1611 6.3867 67.5654 4.2695 67.5654 C 0.3164 67.5654 -2.7988 66.2236 -5.0801 63.5381 C -7.3589 60.8525 -8.4995 57.1831 -8.4995 52.5327 C -8.4995 47.8066 -7.3901 44.1016 -5.1699 41.416 C -2.9492 38.7305 0.1367 37.3872 4.0889 37.3872 C 7.9902 37.3872 10.8945 38.5195 12.8008 40.7852 C 14.7051 43.0508 15.6582 46.5098 15.6582 51.1597 C 15.6582 51.5796 15.6504 52.0444 15.6348 52.5542 C 15.6211 53.0659 15.5898 53.8296 15.5449 54.8511 L -1.9063 54.8511 C -1.8613 57.1304 -1.1855 58.8901 0.1211 60.1284 C 1.4297 61.3662 3.2695 61.9834 5.6426 61.9834 C 7.6094 61.9834 9.248 61.5986 10.5605 60.8252 C 11.873 60.0522 13.123 58.7222 14.3086 56.8315 L 14.3086 62.8623 ZM -2.2207 49.4043 L 11.2695 49.4043 C 11.2246 47.6484 10.5938 46.2422 9.3789 45.1855 C 8.1641 44.127 6.5508 43.5977 4.541 43.5977 C 2.5254 43.5977 0.9043 44.127 -0.3281 45.1855 C -1.5605 46.2422 -2.1914 47.6484 -2.2207 49.4043 Z" fill="#005086"/>
						<path d="M 37.7891 66.5986 L 37.7891 49.3145 C 37.7891 47.4688 37.4629 46.0996 36.8105 45.207 C 36.1582 44.3145 35.1641 43.8691 33.8281 43.8691 C 32.1484 43.8691 30.8574 44.6113 29.957 46.0957 C 29.0586 47.582 28.6074 49.6973 28.6074 52.4429 L 28.6074 66.5986 L 21.7451 66.5986 L 21.7451 38.356 L 27.9551 38.356 L 27.9551 44.9707 C 28.5859 42.5566 29.6133 40.748 31.0391 39.5469 C 32.4629 38.3481 34.3086 37.7466 36.5742 37.7466 C 39.4258 37.7466 41.4766 38.6445 42.7305 40.4355 C 43.9824 42.2285 44.6094 45.248 44.6094 49.4941 L 44.6094 66.5986 L 37.7891 66.5986 Z" fill="#005086"/>
						<path d="M 67.0107 66.5986 L 67.0107 61.7139 C 66.1416 63.665 65.0107 65.1279 63.624 66.1025 C 62.2354 67.0771 60.582 67.5654 58.6621 67.5654 C 56.2461 67.5654 54.3008 66.8193 52.8223 65.3271 C 51.3438 63.833 50.6055 61.8799 50.6055 59.4644 C 50.6055 57.4097 51.3145 55.7104 52.7324 54.3667 C 54.1504 53.0249 56.666 51.7671 60.2832 50.5972 C 60.7764 50.4468 61.4678 50.2383 62.3525 49.9668 C 65.2178 49.127 66.6514 48.0762 66.6514 46.8164 C 66.6514 45.8125 66.208 45.0156 65.3232 44.4316 C 64.4385 43.8457 63.2295 43.5527 61.7002 43.5527 C 59.9609 43.5527 58.2656 44.0156 56.6152 44.9375 C 54.9629 45.8594 53.418 47.2148 51.9785 49 L 51.9785 41.9785 C 53.209 40.5527 54.7949 39.4316 56.7383 38.6133 C 58.6816 37.7954 60.7393 37.3872 62.915 37.3872 C 64.8662 37.3872 66.5908 37.6958 68.0908 38.3091 C 69.5908 38.9258 70.7842 39.8105 71.6689 40.9648 C 72.1934 41.6855 72.5684 42.5098 72.793 43.4414 C 73.0195 44.3711 73.1309 45.834 73.1309 47.8301 L 73.1309 66.5986 L 67.0107 66.5986 ZM 66.8076 52.8706 C 65.8779 53.3062 64.6025 53.8452 62.9834 54.4897 C 59.2168 56.0054 57.334 57.6792 57.334 59.5093 C 57.334 60.4253 57.6563 61.1748 58.3027 61.7588 C 58.9473 62.3447 59.7734 62.6377 60.7764 62.6377 C 62.6514 62.6377 64.1377 61.8916 65.2334 60.3979 C 66.3271 58.9058 66.876 56.8687 66.876 54.2886 C 66.876 53.9136 66.8721 53.6284 66.8643 53.4331 C 66.8564 53.2378 66.8389 53.0503 66.8076 52.8706 Z" fill="#005086"/>
						<path d="M 86.4453 33.7349 C 87.5391 33.7349 88.5684 33.9399 89.5391 34.3481 C 90.5078 34.7544 91.3711 35.3462 92.1309 36.1196 C 92.8633 36.8579 93.4199 37.7017 93.8027 38.6523 C 94.1875 39.6016 94.3789 40.6094 94.3789 41.6738 C 94.3789 42.752 94.1797 43.7715 93.7813 44.7324 C 93.3848 45.6953 92.8066 46.541 92.0469 47.2715 C 91.2871 48.0156 90.4219 48.5879 89.4531 48.9844 C 88.4844 49.3828 87.4805 49.5801 86.4453 49.5801 C 85.3867 49.5801 84.375 49.375 83.4102 48.9629 C 82.4434 48.5527 81.582 47.959 80.8223 47.1855 C 80.084 46.4414 79.5215 45.5957 79.1348 44.6484 C 78.748 43.7012 78.5547 42.709 78.5547 41.6738 C 78.5547 40.9492 78.6504 40.2461 78.8418 39.5605 C 79.0332 38.877 79.3203 38.2095 79.7031 37.5552 C 80.4219 36.3501 81.3691 35.4106 82.5469 34.7407 C 83.7266 34.0708 85.0254 33.7349 86.4453 33.7349 ZM 86.4668 35.0649 C 85.5664 35.0649 84.7285 35.2231 83.957 35.5376 C 83.1836 35.8521 82.4883 36.3169 81.873 36.9321 C 81.2266 37.5767 80.7305 38.3071 80.3828 39.123 C 80.0371 39.9395 79.8633 40.7832 79.8633 41.6523 C 79.8633 42.5293 80.0254 43.3613 80.3516 44.1504 C 80.6777 44.9395 81.1484 45.6406 81.7656 46.2559 C 82.3965 46.9004 83.1172 47.3926 83.9238 47.7363 C 84.7324 48.0781 85.5723 48.25 86.4453 48.25 C 87.2949 48.25 88.123 48.084 88.9277 47.752 C 89.7324 47.4199 90.4648 46.9414 91.123 46.3203 C 91.7402 45.7266 92.2188 45.0332 92.5586 44.2402 C 92.8984 43.4492 93.0703 42.6289 93.0703 41.7793 C 93.0703 40.8398 92.9121 39.9727 92.5957 39.1816 C 92.2813 38.3892 91.8105 37.6782 91.1875 37.0493 C 90.5488 36.3911 89.832 35.897 89.0332 35.5649 C 88.2363 35.231 87.3809 35.0649 86.4668 35.0649 ZM 83.1719 37.1196 L 86.6152 37.1196 C 87.8652 37.1196 88.8047 37.3306 89.4336 37.7524 C 90.0625 38.1743 90.377 38.8047 90.377 39.6406 C 90.377 40.2227 90.207 40.7188 89.8672 41.1309 C 89.5254 41.543 89.0547 41.8223 88.4512 41.9727 L 90.4199 45.8984 L 88.0352 45.8984 L 86.3594 42.3008 L 85.3008 42.3008 L 85.3008 45.8984 L 83.1719 45.8984 L 83.1719 37.1196 ZM 85.3008 38.4712 L 85.3008 41.0137 L 86.3594 41.0137 C 86.9844 41.0137 87.4434 40.9141 87.7363 40.7168 C 88.0273 40.5176 88.1738 40.2051 88.1738 39.7793 C 88.1738 39.332 88.0176 39.002 87.7051 38.7891 C 87.3906 38.5762 86.9063 38.4712 86.252 38.4712 L 85.3008 38.4712 Z" fill="#005086"/>
					</g>
					<g>
						<path d="M 49.5762 -33.8062 C 49.5762 -33.8062 23.0029 -39.1104 10.6777 -26.165 C 1.6494 -16.6904 2.7744 -0.0703 4.0186 8.1499 C 19.6162 -7.5835 34.1602 -17.6201 34.1602 -17.6201 C 34.1602 -17.6201 24.8428 -2.6055 9.8906 13.7378 C 18.165 14.5835 34.8203 14.8882 43.8418 5.4141 C 56.166 -7.5288 49.5762 -33.8062 49.5762 -33.8062 Z" fill="#65bde6"/>
						<path d="M -3.5469 -19.1201 C -2.0137 -23.9424 0.3984 -28.5513 4.0986 -32.4351 C 8.3105 -36.8569 14.0098 -40.0518 20.9014 -41.9443 C 13.75 -60.7949 -8.8813 -74.3535 -8.8813 -74.3535 C -8.8813 -74.3535 -39.248 -54.0845 -38.6606 -30.0122 C -38.229 -12.3862 -21.3281 2.3848 -12.3003 9.0327 C -12.4351 -20.8213 -8.4644 -57.3228 -8.4644 -57.3228 C -8.4644 -57.3228 -5.6875 -39.8115 -3.5469 -19.1201 Z" fill="#005086"/>
						<path d="M -41.5654 -49.4463 C -53.2729 -51.9458 -64.9014 -51.0864 -64.9014 -51.0864 C -64.9014 -51.0864 -77.3706 -19.6494 -65.0986 -0.3262 C -53.5356 17.8818 -25.2324 13.9448 -19.6084 13.6636 C -28.4087 6.5952 -36.3149 -2.627 -40.9609 -10.1831 C -46.5889 -17.8486 -55.2583 -38.4502 -55.2583 -38.4502 C -55.2583 -38.4502 -46.9639 -30.8472 -46.6982 -30.8843 C -46.4922 -36.519 -44.6465 -43.6123 -41.5654 -49.4463 Z" fill="#0070b8"/>
					</g>
				</g>
			</g>

		</symbol>
		<!-- End Library -->

	</defs>
	<g id="Vrstva%201">
		<use id="Symbol%205" xlink:href="#Symbol5" transform="matrix(0.5362, 0, 0, 0.5404, 51.5625, 40.9317)"/>
	</g>
</svg>